<svg id="Art" xmlns="http://www.w3.org/2000/svg" xmlns:xlink="http://www.w3.org/1999/xlink" viewBox="0 0 368 368"><defs><style>.cls-1,.cls-12,.cls-13,.cls-5,.cls-6{fill:none;}.cls-2{fill:#fafafa;}.cls-3{fill:#fff;}.cls-4{fill:#8c8c8c;}.cls-5,.cls-6{stroke:#8c8c8c;stroke-miterlimit:10;}.cls-6{stroke-linecap:round;}.cls-12,.cls-6{stroke-width:3px;}.cls-7{fill:#bde4eb;}.cls-8{clip-path:url(#clip-path);}.cls-9{opacity:0.7;}.cls-10{fill:#ed9ab8;}.cls-11{fill:#333;}.cls-12{stroke:#fff;}.cls-13{stroke:#666;}.cls-14{fill:#666;}</style><clipPath id="clip-path"><path class="cls-1" d="M232.2,11.5a3.3,3.3,0,0,0-2.8.9,2.9,2.9,0,0,0-.6,2.1,7.7,7.7,0,0,1-.3,2.4,8.7,8.7,0,0,1-2.4,4.3,8.2,8.2,0,0,1-4.3,2,22.1,22.1,0,0,1-4.7.4H153a22.1,22.1,0,0,1-4.7-.4,8.2,8.2,0,0,1-4.3-2,8.7,8.7,0,0,1-2.4-4.3,7.7,7.7,0,0,1-.3-2.4,2.8,2.8,0,0,0-.6-2.1,3.4,3.4,0,0,0-2.8-.9H121.4a14.9,14.9,0,0,0-14.9,14.9V341.6a14.9,14.9,0,0,0,14.9,14.9H248.6a14.9,14.9,0,0,0,14.9-14.9V26.4a14.9,14.9,0,0,0-14.9-14.9Z"/></clipPath></defs><title>Layout</title><rect class="cls-2" width="368" height="368"/><path class="cls-3" d="M119.7,367.5a24.3,24.3,0,0,1-24.2-24.4V25.4A24.8,24.8,0,0,1,120.1.5H249.9a24.8,24.8,0,0,1,24.6,24.9V343.1a24.3,24.3,0,0,1-24.2,24.4Z"/><path class="cls-4" d="M249.9,1A24.3,24.3,0,0,1,274,25.4V343.1A23.8,23.8,0,0,1,250.3,367H119.7A23.8,23.8,0,0,1,96,343.1V25.4A24.3,24.3,0,0,1,120.1,1H249.9m0-1H120.1A25.2,25.2,0,0,0,95,25.4V343.1A24.8,24.8,0,0,0,119.7,368H250.3A24.8,24.8,0,0,0,275,343.1V25.4A25.2,25.2,0,0,0,249.9,0Z"/><path class="cls-5" d="M248.2,3.5H121.8A23.4,23.4,0,0,0,98.5,27.1V340.9a23.4,23.4,0,0,0,23.3,23.6H248.2a23.4,23.4,0,0,0,23.3-23.6V27.1A23.4,23.4,0,0,0,248.2,3.5Z"/><path class="cls-4" d="M201.6,14.5a3,3,0,1,1,3,3,3,3,0,0,1-3-3"/><path class="cls-4" d="M193.5,16H175.8a1.4,1.4,0,0,1-1.1-.3,1.7,1.7,0,0,1,0-2.4,1.4,1.4,0,0,1,1.1-.3h17.6a1.4,1.4,0,0,1,1.1.3,1.7,1.7,0,0,1,0,2.4A1.4,1.4,0,0,1,193.5,16Z"/><rect class="cls-4" x="94" y="48" width="1" height="13"/><rect class="cls-4" x="94" y="110" width="1" height="27"/><rect class="cls-4" x="275" y="85" width="1" height="43"/><rect class="cls-4" x="94" y="76" width="1" height="27"/><line class="cls-6" x1="162.5" y1="350.5" x2="210" y2="350.5"/><rect class="cls-7" x="106.5" y="30.5" width="157" height="309"/><path class="cls-4" d="M263,31V339H107V31H263m1-1H106V340H264V30Z"/><g class="cls-8"><g class="cls-9"><rect class="cls-10" x="106" y="11" width="7" height="344"/></g><g class="cls-9"><rect class="cls-10" x="257" y="11" width="7" height="344"/></g></g><path class="cls-5" d="M232.2,11.5a3.3,3.3,0,0,0-2.8.9,2.9,2.9,0,0,0-.6,2.1,7.7,7.7,0,0,1-.3,2.4,8.7,8.7,0,0,1-2.4,4.3,8.2,8.2,0,0,1-4.3,2,22.1,22.1,0,0,1-4.7.4H153a22.1,22.1,0,0,1-4.7-.4,8.2,8.2,0,0,1-4.3-2,8.7,8.7,0,0,1-2.4-4.3,7.7,7.7,0,0,1-.3-2.4,2.8,2.8,0,0,0-.6-2.1,3.4,3.4,0,0,0-2.8-.9H121.4a14.9,14.9,0,0,0-14.9,14.9V341.6a14.9,14.9,0,0,0,14.9,14.9H248.6a14.9,14.9,0,0,0,14.9-14.9V26.4a14.9,14.9,0,0,0-14.9-14.9Z"/><path class="cls-11" d="M311.2,192v-5.9h-.1l-2.4,5.9h-.8l-2.4-5.9h-.1V192h-.9v-7.7h1.1l2.7,6.4h.1l2.7-6.4h1.1V192Z"/><path class="cls-11" d="M313.6,190.4c0-1,.8-1.6,2.1-1.7h1.7V188c0-.7-.4-1.1-1.3-1.1s-1.2.3-1.3.7h-.9c.1-.9,1-1.5,2.3-1.5s2.2.7,2.2,1.9v4h-.9v-.9h-.1a2,2,0,0,1-1.8,1A1.8,1.8,0,0,1,313.6,190.4Zm3.8-.5v-.5h-1.6c-.9.1-1.3.4-1.3.9s.5.9,1.2.9A1.5,1.5,0,0,0,317.4,189.8Z"/><path class="cls-11" d="M320.1,186.2h.9v.9h.1a1.6,1.6,0,0,1,1.6-1h.5v.9h-.6a1.4,1.4,0,0,0-1.5,1.4V192h-.9Z"/><path class="cls-11" d="M324,192.6h1c.1.5.6.8,1.5.8s1.7-.5,1.7-1.4v-1.1H328a2,2,0,0,1-1.8,1c-1.5,0-2.4-1.2-2.4-2.9s.9-2.9,2.4-2.9a2.1,2.1,0,0,1,1.9,1h.1v-.9h.9v5.9c0,1.3-1,2.1-2.6,2.1S324.2,193.6,324,192.6Zm4.1-3.6c0-1.3-.7-2.1-1.7-2.1s-1.7.8-1.7,2.1.6,2.1,1.7,2.1S328.1,190.3,328.1,189Z"/><path class="cls-11" d="M330.6,184.4a.6.6,0,1,1,.6.6A.6.6,0,0,1,330.6,184.4Zm.2,1.8h.9V192h-.9Z"/><path class="cls-11" d="M333.5,186.2h.9v.9h.1a1.7,1.7,0,0,1,1.7-1,1.9,1.9,0,0,1,2,2.1V192h-.9v-3.5c0-1-.4-1.5-1.4-1.5a1.5,1.5,0,0,0-1.5,1.6V192h-.9Z"/><path class="cls-11" d="M341.9,186.1a2,2,0,0,1,2.2,1.6h-.9a1.2,1.2,0,0,0-1.3-.8c-.7,0-1.2.3-1.2.9s.3.6,1,.8l.9.2c1.1.3,1.6.7,1.6,1.6s-1,1.8-2.3,1.8-2.2-.6-2.3-1.6h1a1.3,1.3,0,0,0,1.4.8c.8,0,1.3-.4,1.3-.9s-.3-.7-.9-.8l-1-.2c-1.1-.3-1.6-.7-1.6-1.6S340.7,186.1,341.9,186.1Z"/><path class="cls-11" d="M164.1,190c.1.8.9,1.3,2,1.3s1.8-.6,1.8-1.3-.5-1.1-1.6-1.3l-1-.3c-1.4-.4-2-1-2-2.1s1.1-2.2,2.7-2.2a2.5,2.5,0,0,1,2.7,2.1h-1a1.6,1.6,0,0,0-1.8-1.3c-1,0-1.7.5-1.7,1.3s.4,1,1.5,1.2l.8.2c1.6.4,2.3,1,2.3,2.2s-1.1,2.3-2.9,2.3-2.8-.9-2.9-2.2Z"/><path class="cls-11" d="M170,190.4c0-1,.8-1.6,2.1-1.7h1.7V188c0-.7-.4-1.1-1.3-1.1s-1.2.3-1.3.7h-.9c.1-.9,1-1.5,2.3-1.5s2.2.7,2.2,1.9v4h-.9v-.9h-.1a2,2,0,0,1-1.8,1A1.8,1.8,0,0,1,170,190.4Zm3.8-.5v-.5h-1.6c-.9.1-1.3.4-1.3.9s.5.9,1.2.9A1.5,1.5,0,0,0,173.8,189.8Z"/><path class="cls-11" d="M176.8,187h-1v-.8h1v-.6c0-1.2.6-1.7,1.7-1.7h.6v.8h-.5c-.6,0-.9.3-.9.9v.5h1.3v.8h-1.3v5h-.9Z"/><path class="cls-11" d="M184.9,190.5a2.3,2.3,0,0,1-2.4,1.6c-1.6,0-2.6-1.2-2.6-3s1-3,2.6-3,2.5,1.1,2.5,2.9v.4h-4.2c0,1.1.7,1.9,1.7,1.9a1.5,1.5,0,0,0,1.5-.8Zm-4.1-1.9H184a1.6,1.6,0,0,0-1.6-1.7A1.7,1.7,0,0,0,180.9,188.6Z"/><path class="cls-11" d="M189.2,190.4c0-1,.8-1.6,2.1-1.7H193V188c0-.7-.4-1.1-1.3-1.1s-1.2.3-1.3.7h-.9c.1-.9,1-1.5,2.3-1.5s2.2.7,2.2,1.9v4h-.9v-.9H193a2,2,0,0,1-1.8,1A1.8,1.8,0,0,1,189.2,190.4Zm3.8-.5v-.5h-1.6c-.9.1-1.3.4-1.3.9s.5.9,1.2.9A1.5,1.5,0,0,0,193,189.8Z"/><path class="cls-11" d="M195.6,186.2h.9v.9h.1a1.6,1.6,0,0,1,1.6-1h.5v.9h-.6a1.4,1.4,0,0,0-1.5,1.4V192h-.9Z"/><path class="cls-11" d="M204.4,190.5a2.3,2.3,0,0,1-2.4,1.6c-1.6,0-2.6-1.2-2.6-3s1-3,2.6-3,2.5,1.1,2.5,2.9v.4h-4.2c0,1.1.7,1.9,1.7,1.9a1.5,1.5,0,0,0,1.5-.8Zm-4.1-1.9h3.2a1.6,1.6,0,0,0-1.6-1.7A1.7,1.7,0,0,0,200.3,188.6Z"/><path class="cls-11" d="M205.6,190.4c0-1,.8-1.6,2.1-1.7h1.7V188c0-.7-.4-1.1-1.3-1.1s-1.2.3-1.3.7h-.9c.1-.9,1-1.5,2.3-1.5s2.2.7,2.2,1.9v4h-.9v-.9h-.1a2,2,0,0,1-1.8,1A1.8,1.8,0,0,1,205.6,190.4Zm3.8-.5v-.5h-1.6c-.9.1-1.3.4-1.3.9s.5.9,1.2.9A1.5,1.5,0,0,0,209.4,189.8Z"/><line class="cls-12" x1="299" y1="189.5" x2="260" y2="189.5"/><circle class="cls-3" cx="260" cy="189.5" r="2.5"/><line class="cls-13" x1="299" y1="189.5" x2="260" y2="189.5"/><circle class="cls-14" cx="260" cy="189.5" r="1.5"/></svg>